<?xml version="1.0" standalone="no"?>
<!DOCTYPE svg PUBLIC "-//W3C//DTD SVG 20010904//EN"
 "http://www.w3.org/TR/2001/REC-SVG-20010904/DTD/svg10.dtd">
<svg version="1.0" xmlns="http://www.w3.org/2000/svg"
 width="1080.000000pt" height="1440.000000pt" viewBox="0 0 1080.000000 1440.000000"
 preserveAspectRatio="xMidYMid meet">
<metadata>
Created by potrace 1.16, written by Peter Selinger 2001-2019
</metadata>
<g transform="translate(0.000000,1440.000000) scale(0.100000,-0.100000)"
fill="#000000" stroke="none">
<path d="M5557 12894 c-2 -3 -69 -6 -148 -8 -169 -5 -214 -10 -235 -27 -9 -7
-38 -21 -66 -31 -28 -9 -66 -30 -85 -45 -19 -15 -43 -32 -52 -38 -9 -5 -18
-13 -21 -16 -3 -4 -24 -12 -47 -18 -26 -7 -43 -18 -43 -26 0 -18 10 -19 47 -3
15 6 39 13 52 14 13 2 36 14 50 29 28 26 51 33 51 15 0 -20 72 -10 118 17 36
20 63 27 117 29 39 1 90 5 115 9 l45 7 -29 -16 c-15 -9 -33 -16 -38 -16 -6 0
-25 -7 -44 -16 -35 -17 -45 -34 -19 -34 18 0 18 -5 5 -29 -13 -25 -81 -51
-131 -51 -26 0 -42 -5 -45 -15 -4 -8 -15 -15 -25 -15 -10 0 -19 7 -19 15 0 22
-17 18 -23 -5 -3 -11 -10 -20 -17 -20 -7 0 -9 8 -5 20 3 11 2 20 -4 20 -5 0
-12 -9 -16 -20 -5 -16 -12 -18 -38 -13 -18 3 -34 7 -36 9 -4 3 -31 -22 -31
-29 0 -3 10 -8 23 -11 22 -6 22 -7 3 -21 -11 -8 -32 -15 -46 -15 -15 0 -39
-11 -53 -24 -15 -14 -35 -27 -46 -31 -10 -3 -25 -12 -31 -20 -18 -21 13 -20
45 1 23 15 25 15 25 -1 0 -9 -13 -22 -30 -28 -19 -7 -31 -20 -35 -37 -4 -20
-12 -25 -38 -27 -18 -2 -64 -13 -102 -27 -39 -13 -95 -29 -125 -36 -30 -7 -70
-18 -88 -26 -18 -8 -44 -14 -57 -14 -16 0 -23 -5 -19 -13 4 -10 22 -10 98 -1
52 7 103 15 114 18 18 6 40 -9 30 -20 -3 -2 -36 -11 -74 -20 -38 -9 -89 -26
-114 -37 -24 -12 -59 -20 -77 -20 -49 1 -40 -15 12 -23 25 -3 45 -9 45 -12 0
-16 -42 -31 -91 -32 -31 0 -74 -6 -95 -14 -36 -12 -141 -32 -155 -28 -13 3
-40 -36 -30 -43 18 -11 12 -28 -6 -20 -25 11 -63 7 -80 -7 -10 -8 -19 -8 -37
1 -20 11 -31 9 -76 -12 -47 -23 -58 -24 -122 -16 -39 5 -74 6 -79 3 -5 -3 -18
0 -29 6 -25 13 -60 4 -60 -15 0 -21 14 -26 87 -27 62 -2 82 -9 83 -30 0 -4
-35 -5 -77 -3 -43 3 -95 5 -115 5 -42 -1 -46 5 -22 31 17 19 11 41 -9 34 -22
-8 -40 11 -29 31 12 22 88 46 111 34 23 -11 107 -30 136 -30 13 0 27 5 31 11
5 8 -6 9 -35 4 -34 -5 -41 -4 -41 9 0 19 33 28 91 24 44 -3 57 -20 19 -26 -24
-4 -26 -17 -4 -26 28 -11 44 -6 44 13 0 15 10 20 60 25 33 4 75 4 94 1 33 -7
57 7 36 20 -5 3 -10 18 -10 32 0 25 -1 25 -19 9 -22 -20 -43 -14 -34 10 3 8 2
14 -3 13 -5 -1 -23 -1 -41 0 -28 1 -34 6 -42 34 -6 20 -10 25 -10 12 -1 -13
-4 -16 -9 -8 -5 8 -13 9 -22 3 -13 -9 -13 -10 0 -10 11 -1 10 -4 -4 -15 -25
-19 -56 -21 -38 -3 19 19 14 28 -13 28 -14 0 -28 -6 -31 -14 -9 -23 -35 -28
-49 -10 -9 13 -16 14 -33 5 -30 -16 -42 -14 -42 7 0 10 -7 19 -15 19 -8 0 -15
-6 -15 -14 0 -7 -4 -13 -10 -13 -15 0 -12 40 3 41 6 0 21 3 32 6 11 3 30 6 43
7 12 0 22 4 22 7 0 12 -27 29 -34 21 -4 -4 -26 -8 -49 -9 -23 -1 -55 -4 -72
-6 -16 -3 -57 -10 -90 -15 -70 -11 -131 -35 -160 -61 -11 -10 -30 -22 -42 -26
-13 -3 -23 -12 -23 -19 0 -23 -40 -66 -95 -100 -76 -49 -130 -106 -166 -176
-11 -21 -28 -40 -38 -43 -14 -3 -17 -12 -13 -35 4 -29 -22 -125 -39 -146 -4
-4 -16 1 -27 12 -11 11 -22 18 -25 16 -7 -7 -91 67 -159 139 -56 59 -76 68
-64 29 11 -34 151 -162 208 -191 58 -29 87 -78 58 -96 -5 -3 -10 -21 -10 -40
0 -36 -16 -56 -26 -32 -8 21 -44 9 -44 -14 0 -11 -10 -23 -24 -28 -37 -15 -50
-61 -17 -61 11 0 23 -5 26 -10 4 -6 10 -8 15 -5 4 3 19 -4 31 -14 24 -20 24
-20 4 -35 -19 -15 -19 -17 -2 -30 21 -16 23 -38 3 -34 -8 2 -15 0 -15 -4 -2
-23 0 -28 15 -28 8 0 13 -4 9 -9 -3 -6 -21 -5 -44 4 -22 7 -41 11 -44 9 -3 -3
-13 -1 -24 4 -111 58 -168 80 -179 71 -7 -6 -18 -8 -24 -4 -6 3 -10 -3 -10
-16 0 -18 -4 -21 -32 -17 -20 3 -42 -1 -55 -9 -12 -8 -27 -12 -32 -8 -6 3 -22
-1 -35 -10 -14 -9 -30 -14 -35 -11 -5 4 -28 2 -49 -3 -40 -8 -40 -8 -47 25 -9
50 -25 41 -25 -13 0 -25 -3 -43 -7 -40 -7 8 -32 -23 -33 -41 0 -8 -12 -26 -28
-41 -26 -27 -33 -31 -50 -31 -9 0 -57 -79 -57 -95 0 -5 -4 -16 -9 -23 -11 -17
1 -29 15 -15 6 6 17 9 23 7 7 -3 21 4 31 16 22 24 37 26 28 3 -5 -12 -3 -14 7
-8 13 8 13 6 -6 -62 -4 -14 -2 -23 5 -23 27 0 8 -46 -39 -90 -36 -34 -55 -62
-65 -97 -8 -26 -15 -49 -15 -49 0 -1 11 1 25 4 21 4 25 1 25 -20 0 -14 9 -33
19 -42 15 -14 18 -23 11 -41 -10 -26 5 -46 27 -38 12 5 13 -3 9 -43 -5 -37 -3
-45 6 -36 22 22 30 13 24 -25 -3 -21 -3 -32 0 -25 12 26 23 10 21 -29 -2 -22
1 -43 6 -46 5 -3 5 -8 0 -12 -5 -3 -23 -26 -41 -51 -17 -25 -43 -56 -57 -69
-26 -24 -29 -49 -5 -43 7 1 18 -3 26 -9 12 -10 12 -15 -1 -35 -20 -31 -19 -44
5 -44 11 0 20 -4 20 -9 0 -5 9 -7 20 -4 13 4 20 0 20 -10 0 -8 7 -20 15 -27 8
-7 15 -21 15 -32 0 -15 4 -18 18 -13 9 4 25 8 34 9 9 0 24 10 31 20 14 19 15
18 21 -12 18 -91 19 -86 -21 -109 -24 -14 -32 -22 -20 -23 15 0 15 -3 5 -20
-7 -11 -21 -20 -31 -20 -10 0 -20 -7 -23 -15 -4 -8 -11 -15 -18 -15 -6 0 -20
-10 -30 -22 -15 -18 -16 -20 -2 -15 10 4 16 1 16 -7 0 -17 -38 -28 -43 -12 -3
6 -8 2 -12 -9 -5 -11 -17 -28 -27 -38 -19 -19 -18 -20 21 -53 23 -21 38 -41
35 -49 -4 -10 0 -12 16 -8 28 7 45 -19 41 -61 -2 -18 1 -26 8 -22 6 4 11 13
11 19 0 7 7 22 15 34 14 20 17 21 45 7 36 -19 60 -51 60 -82 0 -13 4 -20 10
-17 13 8 13 -8 -2 -40 -6 -14 -16 -25 -22 -25 -11 0 -28 -22 -53 -69 -15 -26
-8 -45 7 -21 6 8 10 10 10 4 0 -5 -13 -23 -30 -39 -28 -26 -33 -58 -6 -36 23
19 24 1 4 -52 -11 -29 -21 -77 -23 -107 -3 -82 -15 -132 -42 -166 -26 -35 -29
-50 -10 -57 16 -5 -11 -62 -53 -111 -25 -28 -31 -42 -26 -62 5 -17 12 -24 22
-20 11 4 13 0 7 -22 l-6 -27 34 28 c19 15 39 31 44 35 36 29 64 42 79 36 9 -3
28 2 42 11 l27 17 -7 -26 c-4 -15 -9 -62 -11 -106 -3 -44 -9 -99 -15 -122 -13
-59 -13 -245 0 -232 6 6 16 39 22 75 7 35 14 56 16 47 2 -10 8 -18 13 -18 10
0 12 19 9 93 -1 30 3 47 10 47 7 0 9 7 6 16 -8 20 24 70 34 53 6 -9 16 -9 39
-1 25 9 31 8 31 -4 0 -7 -6 -13 -12 -11 -7 1 -11 -5 -9 -13 10 -40 4 -81 -17
-103 -12 -13 -22 -30 -22 -39 0 -9 -7 -21 -16 -29 -13 -11 -13 -15 -2 -23 22
-18 21 -63 -4 -96 -17 -23 -19 -33 -10 -42 7 -7 12 -23 12 -36 0 -32 16 -20
24 19 6 33 22 35 42 3 11 -16 9 -25 -16 -65 -20 -32 -25 -50 -18 -57 12 -12
38 -5 38 10 0 5 -4 7 -10 3 -13 -8 10 56 28 78 12 14 17 15 24 5 7 -10 11 -9
21 3 7 9 29 21 48 27 31 8 37 7 47 -9 7 -11 19 -19 26 -19 22 0 48 -30 41 -48
-3 -8 0 -21 6 -29 9 -10 9 -17 1 -25 -9 -9 -8 -16 4 -29 12 -14 13 -22 4 -38
-7 -15 -7 -21 0 -21 6 0 13 7 16 15 5 12 13 10 43 -13 20 -16 44 -32 54 -35 9
-4 17 -16 17 -27 0 -11 4 -20 8 -20 5 0 17 -16 28 -35 10 -19 22 -35 26 -35 4
0 8 21 10 48 l3 47 23 -39 c13 -21 26 -52 29 -68 6 -31 23 -38 23 -9 0 23 29
36 36 16 3 -8 3 -18 0 -24 -4 -5 -1 -21 5 -35 22 -47 6 -70 -69 -99 -38 -15
-86 -27 -105 -27 -20 0 -39 -4 -42 -10 -8 -12 25 -61 36 -54 5 3 9 -1 9 -9 0
-7 12 -20 28 -27 26 -13 26 -14 5 -18 -13 -2 -23 -7 -23 -12 0 -15 30 -26 123
-45 48 -10 92 -24 98 -32 7 -8 10 -36 7 -71 -6 -59 14 -178 35 -218 19 -36 87
-104 113 -114 25 -10 60 -76 71 -135 3 -16 9 -34 13 -40 4 -5 11 -28 14 -50
17 -93 191 -569 205 -560 16 9 -5 115 -22 116 -7 0 -1 5 13 10 l25 10 -22 19
c-27 22 -29 30 -7 30 11 0 14 5 10 16 -4 9 -1 23 5 30 14 17 4 48 -13 38 -8
-5 -9 -2 -5 10 4 10 7 21 7 26 0 5 8 11 18 14 14 4 14 5 -3 4 -39 -1 -45 2
-45 21 0 10 7 24 15 31 9 7 14 19 11 26 -6 15 25 44 47 44 11 0 17 8 17 21 0
16 -4 19 -22 13 -21 -6 -21 -6 -5 11 12 11 15 25 11 39 -10 32 -23 43 -34 26
-5 -8 -12 -11 -16 -7 -4 4 1 16 11 27 16 18 14 25 -7 21 -5 0 -8 10 -8 24 0
29 17 29 41 1 18 -22 55 -15 46 8 -3 8 1 20 9 26 17 15 18 40 2 40 -7 0 -4 7
7 16 11 8 30 12 43 9 12 -3 31 -1 41 5 15 7 20 6 24 -9 3 -13 -3 -22 -19 -30
-13 -6 -24 -19 -24 -29 0 -10 -6 -24 -12 -31 -11 -11 -10 -13 5 -8 23 8 22 2
-5 -24 l-23 -21 32 7 c18 3 34 2 38 -4 13 -23 44 -12 47 17 2 15 6 22 10 16 4
-6 1 -22 -6 -35 -14 -28 -17 -59 -4 -59 4 0 14 20 20 45 7 28 17 44 24 41 14
-5 25 42 12 50 -5 3 -8 21 -6 40 2 18 0 33 -4 34 -37 1 -39 0 -28 -20 11 -21
4 -25 -19 -11 -8 5 -12 18 -9 29 3 12 0 23 -6 25 -15 6 -66 -3 -66 -12 0 -3
-13 -6 -30 -6 -34 0 -40 14 -10 22 28 7 25 20 -7 27 -16 4 -41 13 -58 21 -16
7 -39 16 -49 20 -14 4 -16 9 -8 17 8 8 18 6 39 -8 15 -10 33 -19 38 -19 6 -1
22 -6 37 -13 53 -22 214 -64 280 -72 38 -5 72 -11 77 -15 5 -3 74 -7 153 -10
139 -4 340 12 412 34 17 5 60 17 96 26 36 10 75 21 87 26 23 8 42 -4 23 -16
-14 -9 -12 -35 3 -35 7 0 13 -15 14 -37 4 -71 8 -89 31 -117 12 -16 20 -32 17
-35 -4 -3 -11 1 -16 9 -8 11 -9 7 -5 -17 4 -25 2 -31 -8 -27 -18 7 -32 -16
-16 -26 9 -6 8 -16 -5 -44 -13 -27 -14 -40 -6 -49 8 -10 7 -17 -1 -25 -22 -22
16 -14 40 8 12 11 23 20 25 20 10 0 47 -39 47 -49 0 -7 4 -10 9 -6 5 3 13 1
16 -5 4 -6 15 -8 26 -5 11 4 19 3 18 -2 -3 -20 2 -23 17 -8 9 8 13 22 10 31
-3 8 1 17 8 20 13 5 31 49 28 67 -1 4 3 7 9 7 8 0 10 -12 6 -36 -5 -32 -4 -35
16 -30 12 3 16 3 10 0 -8 -3 -11 -15 -7 -29 5 -19 1 -24 -18 -27 -17 -2 -24
-11 -28 -33 -4 -23 -12 -31 -35 -36 -30 -7 -17 -13 18 -9 10 1 26 -4 35 -12
10 -8 13 -9 9 -1 -10 15 29 37 51 28 14 -5 14 -7 2 -15 -9 -6 -10 -10 -3 -10
12 0 27 18 28 35 3 43 68 106 88 86 9 -9 8 -10 -7 -5 -13 5 -17 3 -14 -6 8
-24 24 -21 36 5 6 14 16 25 22 25 16 0 12 19 -10 42 -11 12 -20 29 -20 38 0 8
-10 20 -22 25 -27 12 -37 45 -14 45 10 0 16 9 17 23 1 21 1 21 8 -3 5 -17 9
-21 15 -12 10 17 -7 36 -48 56 -41 19 -92 21 -103 4 -16 -27 -13 -48 7 -48 12
0 26 -12 35 -30 9 -17 11 -30 5 -30 -5 0 -10 -6 -10 -13 0 -13 -43 -17 -55 -5
-4 4 -13 4 -21 1 -8 -3 -14 0 -14 6 0 6 -24 9 -64 8 -68 -2 -91 -12 -66 -27
13 -8 12 -11 -5 -23 -10 -8 -25 -12 -33 -9 -9 3 -10 7 -2 12 6 3 8 14 4 23 -4
12 1 18 20 23 14 3 26 10 26 16 0 5 -4 6 -10 3 -5 -3 -10 3 -10 14 0 12 -4 21
-8 21 -4 0 -14 16 -21 35 -7 19 -17 33 -22 30 -5 -4 -9 -2 -9 3 0 6 7 12 15
16 10 4 15 20 15 50 0 59 7 75 31 69 15 -4 19 0 19 22 0 27 35 83 42 65 1 -5
23 7 48 26 25 20 60 43 78 52 18 9 32 23 32 33 0 23 16 33 26 17 4 -6 2 -14
-4 -16 -13 -4 -6 -22 9 -22 5 0 9 11 9 25 0 16 6 25 15 25 8 0 15 -4 15 -10 0
-5 5 -10 11 -10 6 0 8 9 4 20 -5 16 -2 20 17 20 23 1 23 1 3 17 -16 12 -17 14
-3 10 12 -4 21 1 28 13 6 11 8 20 6 20 -3 0 -1 12 4 26 7 16 7 32 0 44 -7 13
-6 23 3 32 24 27 33 53 26 78 -12 41 -10 55 10 76 10 12 22 40 26 64 4 24 14
51 23 59 10 10 11 16 3 19 -14 5 -15 32 0 32 6 0 8 9 4 20 -5 15 -2 20 12 20
24 1 63 34 63 54 0 8 5 18 10 21 6 4 8 11 5 16 -24 37 49 85 113 73 89 -16
117 -52 177 -224 39 -113 92 -223 161 -336 24 -39 44 -74 44 -77 0 -16 95
-129 133 -160 36 -29 168 -98 232 -122 65 -23 227 -55 335 -65 342 -34 732 56
898 205 87 79 158 217 262 515 79 227 104 263 203 300 45 17 57 26 58 43 0 12
3 31 5 42 13 54 16 206 5 234 -9 21 -10 35 -2 50 9 17 6 26 -18 54 -27 31 -29
35 -16 58 8 13 17 29 20 36 4 6 -3 25 -15 41 -19 25 -21 41 -21 151 0 98 3
127 16 141 19 21 12 43 -21 61 -43 23 -53 54 -48 163 2 54 8 104 15 112 9 11
6 16 -16 24 -14 5 -31 10 -36 10 -15 0 -10 16 11 35 11 10 17 22 14 26 -3 5 6
9 20 9 15 0 31 -8 38 -20 16 -26 24 -25 33 3 11 33 7 43 -26 79 l-30 33 28 12
c19 7 30 8 34 1 4 -7 9 -7 13 0 4 6 13 9 20 6 20 -8 30 14 16 31 -8 9 -10 28
-6 46 5 25 3 30 -9 25 -20 -7 -45 3 -45 20 0 7 -8 17 -17 23 -15 8 -16 13 -5
31 7 11 10 24 8 29 -3 4 -8 35 -11 69 -5 55 -4 62 17 76 25 18 64 21 73 6 10
-17 20 -12 38 20 18 29 18 30 -9 52 -55 46 -71 64 -83 86 -11 20 -15 21 -28
10 -9 -7 -26 -11 -39 -10 -13 2 -32 -2 -44 -8 -26 -14 -50 -2 -28 14 8 6 19
20 25 30 14 25 43 29 65 9 17 -15 18 -15 18 0 0 9 -11 27 -25 40 -33 30 -28
43 46 107 92 80 60 79 -47 -2 -55 -41 -74 -47 -74 -22 0 11 -6 13 -19 9 -18
-5 -19 -2 -14 28 3 20 1 37 -6 41 -23 15 44 117 93 141 16 8 21 21 23 59 1 27
10 59 20 73 10 14 23 33 28 42 6 9 13 18 16 21 15 13 18 58 4 76 -19 25 -19
82 0 118 21 39 14 129 -10 132 -17 2 -30 16 -38 38 -6 18 -49 -7 -71 -42 -13
-20 -33 -47 -44 -60 -16 -18 -21 -20 -26 -7 -3 8 -13 15 -21 15 -9 0 -13 5 -9
11 4 7 0 9 -12 5 -17 -5 -19 0 -21 41 -2 48 12 85 53 140 27 36 33 76 9 67 -8
-4 -15 -12 -15 -20 0 -13 -37 -44 -52 -44 -12 0 -9 22 6 53 8 15 11 27 7 27
-13 0 -22 63 -11 74 14 14 12 26 -4 26 -7 0 -20 -10 -29 -22 -20 -30 -29 -20
-18 20 6 20 6 45 -1 68 -5 20 -8 48 -5 61 2 13 1 26 -4 29 -5 2 -12 28 -15 57
-5 39 -9 47 -15 32 -4 -11 -8 -14 -8 -7 -1 7 -5 11 -9 8 -5 -3 -16 4 -25 15
-9 10 -22 19 -29 19 -14 1 -43 58 -64 128 -8 25 -21 56 -29 69 -8 12 -15 26
-15 31 0 5 -7 26 -16 47 -14 35 -16 36 -30 19 -13 -16 -16 -17 -21 -4 -9 21
-106 120 -118 120 -6 0 -31 20 -55 45 -24 25 -49 45 -55 45 -13 0 -97 86 -121
125 -21 34 -21 35 -104 129 -33 37 -60 72 -60 77 0 4 -7 6 -15 3 -10 -4 -43
23 -98 77 -45 46 -98 96 -117 112 -80 63 -131 97 -145 97 -8 0 -15 5 -15 10 0
15 -80 64 -148 91 -31 13 -84 38 -117 57 -36 20 -68 32 -82 29 -22 -4 -106 56
-233 164 -71 61 -158 94 -294 110 -38 4 -75 10 -82 13 -6 2 -14 3 -17 0z m458
-1865 c5 -5 21 -9 37 -9 18 0 31 -7 39 -21 9 -18 17 -20 51 -15 34 6 39 4 35
-9 -5 -12 1 -15 28 -15 19 0 35 -4 35 -10 0 -7 50 -22 82 -25 3 0 9 -3 13 -7
4 -4 13 -4 21 -1 14 5 104 -36 104 -48 0 -5 23 -18 50 -31 29 -13 48 -28 46
-35 -3 -7 1 -10 10 -6 7 3 14 0 14 -6 0 -6 8 -11 19 -11 10 0 24 -7 31 -15 7
-8 21 -15 31 -15 11 0 19 -4 19 -9 0 -4 39 -48 88 -97 76 -79 162 -184 162
-200 0 -3 17 -31 37 -62 20 -31 38 -62 39 -68 1 -6 16 -42 34 -80 18 -38 36
-78 40 -89 5 -11 15 -36 23 -55 8 -19 24 -55 35 -80 11 -25 30 -79 42 -120 13
-41 26 -79 30 -85 10 -13 19 -135 19 -265 1 -155 16 -259 55 -368 18 -53 37
-113 40 -133 4 -21 12 -42 19 -48 8 -6 14 -35 15 -67 1 -31 5 -61 10 -68 15
-19 33 -165 35 -276 1 -79 -3 -118 -17 -158 -13 -39 -15 -56 -7 -66 19 -22 -3
-24 -162 -15 -283 17 -304 20 -258 37 21 8 22 8 4 25 -23 20 -106 65 -153 82
-19 7 -61 24 -92 39 -31 14 -63 26 -70 26 -11 0 -11 2 0 9 11 6 6 14 -17 32
-23 18 -28 28 -21 39 8 12 12 13 19 1 7 -10 12 -8 25 10 21 31 10 37 -92 45
-53 4 -83 11 -86 20 -3 7 -1 16 4 19 6 4 10 12 10 18 0 7 -4 6 -10 -3 -6 -10
-10 -11 -10 -2 0 6 -7 12 -16 12 -11 0 -13 6 -9 19 8 26 -11 36 -24 13 -7 -14
-26 -21 -68 -26 -65 -8 -113 -43 -113 -83 0 -16 -4 -21 -15 -17 -11 4 -19 -3
-26 -24 -6 -16 -19 -32 -29 -35 -18 -5 -76 -104 -67 -114 3 -2 1 -19 -5 -36
-5 -18 -12 -48 -14 -67 -3 -19 -7 -41 -9 -48 -3 -7 0 -10 6 -7 6 4 13 -3 16
-15 5 -19 10 -21 47 -15 22 4 46 11 51 15 23 17 225 34 225 19 0 -3 -42 -11
-92 -18 -96 -12 -125 -19 -239 -52 -36 -11 -128 -35 -204 -54 -92 -23 -147
-42 -161 -56 -16 -15 -29 -19 -41 -14 -10 4 -43 9 -73 11 -75 6 -100 10 -135
25 -30 12 -38 14 -62 17 -6 1 -14 11 -18 21 -4 12 -12 17 -24 14 -13 -3 -21 2
-26 17 -4 12 -10 19 -13 15 -7 -7 -32 71 -32 103 0 12 -5 22 -11 22 -7 0 -9 9
-6 21 3 12 2 26 -3 33 -64 78 -62 74 -43 85 17 10 17 10 -2 11 -11 1 -14 4 -7
7 17 7 15 17 -12 46 -22 23 -25 24 -40 9 -14 -15 -17 -13 -27 16 -8 25 -17 32
-37 33 -17 1 -21 3 -9 6 9 2 17 11 17 20 0 9 -6 13 -14 10 -17 -7 -36 11 -30
28 3 7 -9 18 -26 25 -17 7 -27 16 -22 19 15 9 2 61 -15 61 -9 0 -11 5 -6 13
14 22 14 51 -1 59 -7 4 -20 28 -27 52 -7 25 -16 43 -21 40 -4 -3 -5 -12 -1
-22 3 -10 -2 -8 -12 7 -14 18 -15 25 -5 31 8 5 10 15 5 26 -10 23 -12 30 -14
47 -1 9 -3 9 -10 -2 -6 -9 -11 -10 -15 -2 -4 6 -15 7 -30 1 -16 -6 -28 -5 -36
3 -10 9 -12 8 -7 -5 4 -10 -1 -18 -13 -21 -13 -3 -21 1 -25 13 -4 14 -16 17
-60 15 -53 -1 -71 7 -40 19 26 9 17 29 -11 23 -18 -3 -24 -1 -20 9 3 8 -1 14
-9 14 -7 0 -17 -9 -20 -20 -5 -16 -12 -19 -33 -14 -15 4 -34 13 -42 20 -8 7
-19 12 -25 12 -5 0 -15 10 -22 23 -10 20 -13 21 -19 6 -8 -21 -84 -25 -85 -4
0 9 -2 9 -6 -1 -2 -6 -9 -9 -14 -6 -6 3 -5 12 3 21 11 14 10 15 -11 8 -22 -7
-23 -5 -17 21 l7 27 -29 -31 c-34 -37 -50 -42 -28 -10 14 20 14 24 1 45 -12
17 -13 28 -5 42 17 33 12 44 -15 37 -14 -4 -25 -2 -25 4 0 5 7 10 15 10 9 0
12 6 9 15 -7 16 11 21 21 5 7 -11 45 9 45 25 0 5 4 16 9 24 7 11 13 9 31 -9
l23 -23 -29 6 c-16 3 -23 4 -16 1 10 -5 9 -9 -5 -20 -26 -19 2 -18 32 2 14 9
25 24 25 34 0 10 7 23 15 30 20 17 19 27 -5 33 -11 3 -18 2 -15 -3 3 -4 -1
-10 -9 -13 -8 -3 -17 1 -20 9 -3 8 1 17 9 20 8 4 15 13 15 21 0 11 6 13 23 8
12 -4 30 -7 40 -6 9 0 17 -6 17 -13 0 -7 10 -18 23 -25 l22 -11 -22 6 c-18 4
-23 1 -23 -14 0 -24 23 -35 39 -19 9 9 15 8 22 -5 13 -23 59 -24 59 -2 0 11
-6 14 -22 9 -22 -6 -22 -5 -4 9 14 12 17 23 12 50 -4 22 -3 36 3 36 6 0 7 15
4 36 -5 28 -2 39 11 46 9 5 14 13 11 18 -3 6 -3 25 1 45 5 27 11 35 28 36 19
1 19 2 -3 8 l-24 6 28 13 c16 7 44 31 63 53 39 44 59 49 71 17 8 -19 9 -15 9
19 0 26 -5 40 -12 39 -6 -2 -8 -1 -4 1 12 7 -11 43 -27 43 -8 0 -15 5 -15 11
0 20 44 4 50 -18 4 -19 7 -20 23 -8 17 13 18 15 2 46 -12 23 -19 28 -25 19 -5
-7 -15 -10 -26 -6 -11 4 -24 -1 -37 -15 -15 -16 -22 -18 -25 -10 -3 8 10 25
27 40 17 15 31 34 31 44 0 9 4 17 9 17 5 0 12 16 15 35 4 21 13 35 21 35 8 0
14 3 14 8 -3 17 2 26 9 15 11 -17 44 -20 50 -4 3 8 0 11 -6 7 -6 -3 -13 -2
-17 4 -4 7 6 9 30 6 32 -4 35 -2 30 15 -4 12 -1 21 9 25 11 4 13 11 5 31 -12
31 -12 46 0 38 13 -8 22 10 23 45 1 17 8 32 17 35 14 6 14 8 -3 21 -17 12 -18
14 -3 14 10 0 17 8 17 20 0 11 -7 20 -15 20 -8 0 -15 9 -15 20 0 12 -7 32 -16
45 -9 14 -14 31 -11 40 4 8 2 17 -3 20 -6 4 -10 1 -10 -6 0 -7 -2 -10 -5 -8
-5 6 10 55 31 104 l14 30 0 -27 c0 -24 4 -28 30 -28 17 0 30 5 30 10 0 6 -11
10 -25 10 -23 0 -25 3 -19 28 9 37 11 38 34 17 18 -16 20 -16 20 -2 0 10 7 17
15 17 8 0 17 11 21 25 3 14 10 25 15 25 8 0 10 -8 13 -50 1 -14 8 -16 36 -11
5 0 8 7 6 14 -3 6 -7 26 -10 43 -5 30 -4 31 37 32 23 1 44 7 45 12 2 6 8 10
14 10 6 0 7 -7 4 -15 -8 -22 21 -31 42 -12 9 8 25 17 36 18 10 2 26 18 35 34
18 31 28 37 73 39 23 1 26 5 21 24 -4 16 -1 22 11 22 9 0 16 7 16 15 0 8 11
17 24 21 16 4 23 11 19 20 -3 8 1 14 11 14 9 0 16 5 16 10 0 6 5 10 10 10 6 0
23 11 37 24 15 14 31 23 35 20 5 -3 16 0 24 7 8 6 38 14 67 16 28 2 59 11 69
20 16 14 18 14 24 -1 8 -20 28 -21 45 0 9 11 22 14 46 9 22 -4 33 -2 33 5 0
13 79 4 95 -11z m-1422 -2746 c80 -19 98 -38 33 -38 -25 0 -42 -6 -51 -19 -24
-32 -7 -39 76 -32 71 6 81 4 99 -14 11 -11 20 -27 20 -35 0 -8 8 -19 18 -24
14 -8 17 -4 20 25 1 19 -5 46 -14 59 -15 24 -15 25 3 25 28 0 115 -30 134 -46
8 -8 20 -14 26 -14 5 0 18 -9 28 -20 10 -11 13 -20 7 -20 -7 0 -12 4 -12 9 0
12 -51 24 -60 14 -4 -4 -4 -42 0 -83 4 -47 2 -90 -6 -115 -11 -39 -4 -85 13
-85 5 0 17 10 27 22 l19 22 10 -22 c6 -12 16 -22 23 -22 7 0 16 -16 19 -37 4
-21 10 -58 15 -82 7 -37 5 -47 -8 -58 -16 -11 -16 -12 1 -13 17 0 24 -15 9
-22 -14 -6 -52 -79 -52 -100 0 -14 -5 -18 -15 -14 -8 3 -15 1 -15 -4 0 -5 -15
-12 -34 -15 -36 -7 -53 -34 -33 -54 15 -15 6 -20 -25 -14 -24 5 -28 10 -28 38
0 24 -6 34 -25 43 -32 15 -55 15 -55 2 0 -5 10 -10 22 -10 21 0 21 -1 5 -17
-13 -13 -20 -14 -29 -5 -15 15 -58 -32 -51 -58 2 -9 -2 -33 -11 -53 -16 -39
-8 -54 21 -42 15 5 14 3 -1 -14 -10 -11 -16 -27 -13 -35 3 -8 1 -17 -6 -19 -8
-3 -4 -12 11 -26 12 -12 22 -33 22 -46 0 -13 4 -26 9 -29 5 -3 0 -31 -10 -62
-10 -31 -17 -60 -14 -64 5 -9 53 7 101 33 18 9 60 47 94 84 45 49 54 55 30 23
-58 -79 -103 -121 -173 -161 -166 -98 -349 -136 -602 -126 -372 15 -645 114
-768 276 -45 59 -67 105 -105 216 -57 162 -76 280 -76 465 -1 151 1 169 21
210 l22 45 -7 -60 c-17 -142 -1 -378 34 -505 41 -147 169 -370 213 -370 6 0
11 -6 11 -14 0 -18 31 -30 41 -15 10 16 28 3 24 -19 -1 -9 0 -11 2 -4 9 25 25
12 19 -15 -4 -18 -3 -23 2 -15 7 11 11 9 15 -8 3 -12 10 -19 16 -15 14 8 14
35 1 35 -5 0 -7 14 -3 33 8 44 23 58 23 22 l0 -30 24 28 c28 32 36 34 29 6 -6
-21 -6 -21 22 -3 15 10 23 20 16 22 -19 6 -13 53 9 59 15 4 18 11 14 33 -7 33
5 43 41 34 19 -5 25 -13 25 -34 0 -16 -6 -30 -12 -33 -8 -2 -9 -8 -4 -13 5 -5
11 -4 13 4 8 20 26 14 20 -8 -3 -10 1 -24 9 -31 14 -12 17 -8 27 36 5 19 5 19
12 -2 9 -29 23 -29 27 -1 2 12 10 23 18 26 12 4 13 2 3 -9 -16 -16 -17 -29 -3
-29 6 0 15 11 20 25 13 33 27 32 33 -2 3 -16 4 -9 3 15 -1 28 3 42 11 42 16 0
17 16 2 25 -5 4 -19 -4 -31 -17 -20 -23 -20 -23 -14 -1 6 19 4 21 -19 19 -14
-2 -31 -8 -37 -14 -7 -7 -17 -12 -22 -12 -6 0 -3 6 6 13 16 13 19 39 5 53 -4
4 -13 -1 -21 -11 -13 -18 -14 -18 -27 3 -8 12 -19 22 -26 22 -7 0 -13 9 -13
21 0 14 5 19 18 17 11 -2 18 1 18 7 -1 5 -4 9 -7 8 -4 -1 -9 7 -12 18 -5 17
-1 19 34 17 21 -2 41 -9 44 -15 6 -18 22 -16 29 5 3 9 9 23 12 31 4 8 2 11 -4
7 -5 -3 -12 1 -16 9 -4 12 3 15 34 15 22 0 40 4 40 8 0 4 -10 8 -22 7 -13 0
-24 5 -25 10 -2 6 7 10 20 10 22 0 44 21 33 32 -3 4 -6 1 -6 -5 0 -7 -5 -12
-11 -12 -5 0 -7 5 -4 10 3 6 -3 10 -14 10 -12 0 -21 -4 -21 -10 0 -5 -5 -10
-12 -10 -6 0 -20 -7 -30 -17 -26 -23 -29 -14 -14 42 10 42 14 47 22 32 14 -24
84 -41 84 -20 0 8 -4 12 -9 8 -5 -3 -12 -1 -16 5 -3 5 3 10 14 10 14 0 21 -6
21 -20 0 -22 20 -26 38 -8 9 9 12 9 12 0 0 -7 -4 -12 -10 -12 -5 0 -10 -4 -10
-10 0 -18 27 -10 53 15 30 31 38 19 25 -40 -16 -71 -15 -125 3 -125 8 0 21 6
27 12 10 10 17 10 31 1 10 -7 28 -9 38 -7 11 3 27 -1 36 -10 13 -14 16 -14 28
0 7 8 21 13 31 11 11 -3 18 0 18 9 0 10 9 5 23 -12 20 -23 25 -24 30 -11 4 12
2 14 -10 10 -25 -10 -5 17 21 27 l21 9 -22 7 c-31 9 -29 21 3 27 20 3 28 0 31
-14 6 -22 23 -26 23 -5 0 23 22 31 32 12 5 -9 16 -16 24 -16 23 0 13 34 -11
38 -20 4 -78 62 -70 70 2 3 15 -2 27 -10 20 -13 25 -13 36 -2 11 12 9 14 -6
14 -25 0 -38 18 -37 51 0 16 -7 31 -17 38 -11 7 -18 7 -18 1 0 -24 -20 -7 -21
18 0 15 -3 21 -6 15 -7 -19 -21 -16 -28 8 -4 11 -18 24 -31 29 -23 9 -34 40
-14 40 6 0 10 -5 10 -11 0 -5 4 -8 9 -4 6 3 14 -2 19 -11 8 -14 12 -12 28 14
12 22 20 28 26 19 4 -7 8 8 8 34 0 29 7 55 18 70 10 13 24 36 31 52 8 15 18
27 23 27 4 0 8 5 8 11 0 6 -8 8 -19 4 -20 -6 -34 15 -25 39 3 8 1 17 -5 20 -6
4 -8 13 -4 22 3 8 -2 23 -12 34 -22 24 -5 60 29 60 47 0 65 62 29 103 -15 16
-14 17 8 17 13 0 59 -8 102 -17z m2287 -21 c-19 -8 -41 -14 -49 -13 -7 1 -10
-2 -7 -8 4 -5 -14 -22 -39 -37 -60 -35 -47 -55 23 -35 26 8 54 14 62 13 8 0
40 -1 71 -2 73 -3 83 3 76 50 -5 37 -5 38 36 43 53 7 202 -9 252 -27 22 -8 32
-15 22 -15 -44 -2 -22 -62 30 -82 17 -6 25 -25 41 -101 11 -51 25 -147 32
-213 11 -111 14 -122 38 -142 15 -12 21 -22 15 -23 -16 0 -17 -44 -2 -72 21
-39 28 3 23 127 -6 108 -4 125 15 169 12 27 33 60 47 73 14 13 22 28 19 33 -4
6 -2 17 5 24 22 27 29 73 15 100 -19 36 0 33 40 -7 23 -23 41 -58 60 -117 24
-77 26 -95 21 -181 -9 -146 -31 -245 -98 -448 -97 -291 -235 -400 -603 -473
-80 -16 -140 -20 -305 -20 -268 0 -366 16 -513 86 -157 74 -246 180 -342 406
-67 157 -104 364 -84 461 25 122 114 246 215 303 90 50 330 114 454 121 60 3
75 2 52 -4 -62 -16 -69 -51 -11 -51 26 0 33 -6 46 -40 15 -38 35 -51 47 -31 3
4 29 9 58 10 31 0 58 7 67 15 12 13 11 14 -8 9 -23 -6 -23 -5 -7 23 9 16 22
37 29 48 10 15 9 20 -2 23 -32 12 18 23 104 22 l90 -1 -35 -16z"/>
<path d="M6487 9059 c-25 -19 -30 -20 -45 -6 -15 13 -22 14 -57 1 -22 -7 -42
-14 -45 -14 -3 0 2 -5 10 -10 12 -8 12 -10 -5 -10 -35 -1 -65 -23 -55 -40 15
-23 12 -43 -5 -36 -9 3 -23 1 -33 -4 -9 -6 -35 -16 -56 -23 -54 -18 -61 -41
-11 -31 28 5 36 4 31 -5 -5 -8 7 -10 47 -5 32 4 68 2 86 -4 27 -9 32 -8 41 9
6 10 20 19 31 19 12 0 17 -4 14 -11 -4 -6 -14 -8 -24 -4 -12 4 -13 3 -5 -5 16
-16 154 -23 154 -8 0 9 3 9 11 1 9 -9 15 -8 26 2 10 11 40 14 111 13 87 0 182
16 182 31 -1 12 -68 76 -96 93 -16 9 -59 19 -94 23 -36 4 -78 13 -95 20 -58
25 -88 26 -118 4z"/>
<path d="M4270 12271 c-46 -25 -125 -50 -134 -42 -6 5 -53 4 -111 -2 -55 -6
-123 -11 -152 -11 -29 0 -50 -3 -47 -8 3 -4 12 -8 20 -8 8 0 14 -3 14 -7 0 -5
31 -7 70 -6 38 0 70 -2 70 -7 0 -4 12 -5 26 -2 16 3 23 9 20 18 -3 8 -1 14 4
14 6 0 10 -4 10 -10 0 -13 53 -13 66 0 5 5 52 10 104 12 69 2 94 6 93 16 -2 6
1 12 6 12 5 0 12 7 15 16 4 12 1 14 -14 9 -11 -4 -20 -2 -20 4 0 13 -19 13
-40 2z"/>
<path d="M50 10114 c0 -8 7 -23 17 -32 15 -15 14 -17 -8 -23 -18 -4 -27 0 -37
18 -7 13 -15 23 -17 23 -3 0 -4 -24 -4 -52 1 -29 4 -43 6 -30 2 12 9 22 15 22
13 0 2 -63 -12 -68 -5 -2 -9 -97 -10 -214 l0 -210 24 6 c13 3 43 8 66 11 23 3
50 9 59 14 9 4 43 14 76 21 33 7 69 22 81 32 11 10 27 18 34 18 8 0 25 12 37
27 13 14 23 22 23 17 0 -15 38 -34 54 -28 20 8 31 61 16 79 -6 8 -11 33 -10
57 3 60 2 64 -12 50 -22 -22 -48 -14 -48 13 0 22 -3 24 -19 15 -26 -13 -44
-13 -35 1 5 8 1 8 -14 0 -31 -16 -81 11 -90 49 -2 8 -11 20 -20 28 -16 13 -16
13 1 8 23 -7 22 9 -5 44 -27 38 -62 41 -56 6 4 -21 0 -25 -26 -29 -19 -3 -37
0 -46 9 -10 10 -10 14 -2 14 19 0 14 45 -9 84 -23 40 -29 44 -29 20z"/>
<path d="M684 9560 c-6 -6 -48 -13 -95 -15 -46 -3 -97 -8 -114 -11 -16 -4 -50
-8 -76 -9 -26 -1 -51 -5 -58 -9 -6 -4 -49 -10 -96 -13 -47 -3 -85 -9 -85 -13
0 -6 -76 -17 -147 -22 -10 -1 -13 -217 -13 -1045 0 -828 3 -1043 13 -1043 8 0
9 -3 1 -8 -14 -10 -18 -242 -4 -242 7 0 8 -6 1 -18 -13 -24 -12 -580 1 -588
16 -10 23 6 10 26 -14 23 -17 59 -3 44 5 -5 13 -25 18 -44 9 -32 43 -57 43
-30 0 6 -4 9 -9 5 -17 -10 -24 17 -8 32 13 14 16 13 26 -5 14 -26 4 -51 -23
-62 -19 -8 -18 -9 7 -9 18 -1 26 -5 21 -12 -3 -6 -15 -9 -25 -6 -14 4 -19 0
-19 -14 0 -20 -15 -26 -25 -9 -3 6 -10 10 -16 10 -14 0 -11 -27 7 -44 14 -14
12 -20 -7 -18 -3 0 -6 -75 -7 -167 l-2 -168 27 -6 c17 -4 33 -16 40 -31 10
-23 9 -26 -9 -26 -11 0 -22 8 -25 19 -7 26 -33 36 -33 12 0 -10 11 -23 25 -29
14 -6 25 -18 25 -27 0 -8 7 -15 15 -15 8 0 15 -5 15 -11 0 -19 -45 -4 -55 19
-16 37 -24 25 -24 -33 1 -45 5 -58 22 -70 17 -12 18 -15 5 -15 -21 0 -26 -44
-28 -228 -1 -97 3 -148 11 -158 9 -11 9 -14 0 -14 -15 0 -13 -169 1 -187 7 -9
7 -13 -1 -13 -8 0 -11 -36 -10 -119 1 -107 3 -119 17 -115 15 5 15 4 -1 -9
-18 -15 -24 -67 -7 -67 6 0 10 -8 10 -19 0 -13 9 -20 30 -23 28 -4 30 -2 31
26 1 17 3 52 4 79 1 26 -1 47 -6 47 -5 0 -6 7 -3 15 11 27 33 16 40 -20 6 -34
34 -50 34 -20 0 14 3 14 24 -1 14 -8 26 -24 28 -35 4 -27 22 -25 30 3 14 50 8
113 -14 148 -12 19 -23 53 -24 76 -2 22 -4 47 -6 55 -2 10 5 13 21 11 23 -2
23 -1 9 15 -8 10 -18 26 -21 36 -4 9 -12 17 -19 17 -7 0 -25 6 -40 14 -15 8
-36 12 -48 9 -18 -5 -20 -1 -19 38 0 28 3 37 7 26 7 -16 9 -16 27 -3 12 10 15
15 7 16 -7 0 -10 5 -7 10 4 6 10 8 15 5 4 -3 13 18 20 45 7 28 15 52 20 55 4
2 4 24 -1 47 -12 66 -11 83 11 108 11 13 20 29 20 36 0 7 12 20 27 28 l28 15
-23 8 c-13 5 -37 8 -53 7 -23 -2 -29 2 -29 17 0 10 -4 19 -10 19 -5 0 -10 -5
-10 -11 0 -5 -5 -7 -11 -3 -8 5 -6 10 5 16 19 11 21 49 4 66 -9 9 -8 12 4 12
9 0 20 -5 24 -11 10 -17 25 12 18 36 -3 11 -2 15 3 10 16 -21 73 -56 73 -46 0
6 6 11 14 11 20 0 28 67 12 94 -8 11 -17 40 -21 63 -4 23 -13 47 -21 54 -19
15 -18 29 2 29 17 0 14 22 -4 28 -7 2 -12 -3 -12 -12 0 -9 -9 -17 -20 -17 -11
-1 -27 -2 -36 -3 -21 -1 -49 75 -31 86 9 5 9 10 -1 20 -6 6 -12 20 -12 30 0
26 -30 11 -31 -16 -1 -20 -2 -20 -6 -1 -3 11 -10 24 -17 28 -8 6 -8 10 2 14 6
2 9 9 6 15 -6 10 50 68 65 68 5 0 11 -9 14 -20 3 -11 10 -20 17 -20 7 0 9 8 5
20 -3 11 -2 20 3 20 14 0 20 70 9 113 -5 20 -16 37 -23 37 -9 0 -14 11 -14 30
0 17 5 30 10 30 6 0 10 -8 10 -17 1 -30 18 8 26 55 6 40 -5 57 -21 31 -5 -7
-13 -4 -26 7 -15 13 -22 14 -33 5 -8 -7 -16 -21 -18 -31 -3 -16 -6 -17 -21 -6
-12 10 -15 21 -11 43 5 24 10 29 29 26 15 -4 24 1 27 14 8 29 -2 43 -28 43
-24 0 -33 15 -13 22 8 3 8 11 -2 27 -11 19 -11 25 -1 28 18 7 15 23 -5 23 -14
0 -14 3 -5 12 10 10 15 10 22 -2 15 -24 25 -1 13 30 -6 17 -9 39 -6 50 3 11 0
20 -6 20 -15 0 -14 27 1 32 8 3 8 9 -1 24 -10 15 -11 15 -7 2 3 -10 1 -18 -4
-18 -17 0 -18 15 -4 48 12 30 15 32 29 19 8 -9 15 -23 15 -32 0 -19 23 -45 41
-45 7 0 10 -3 6 -6 -3 -4 0 -19 8 -34 8 -16 16 -50 18 -77 3 -31 8 -47 16 -45
6 1 21 -2 31 -8 17 -9 20 -7 20 12 0 42 -12 98 -21 98 -12 0 -11 -37 1 -45 17
-11 11 -35 -9 -35 -14 0 -20 9 -23 38 -3 20 -2 39 2 42 12 9 22 80 11 80 -6 0
-8 7 -5 15 4 8 12 15 20 15 20 0 18 78 -2 119 -16 32 -12 67 6 56 5 -3 10 -2
10 4 0 5 -6 12 -12 15 -10 5 -10 7 0 12 6 3 12 14 12 25 0 10 5 19 10 19 6 0
10 7 10 15 0 8 -4 15 -9 15 -11 0 -21 49 -14 67 3 7 14 13 24 13 28 0 26 54
-3 74 l-22 16 24 0 c39 1 63 24 54 52 -10 32 -11 69 -2 74 4 3 8 -2 8 -10 0
-8 7 -22 16 -31 13 -13 15 -27 10 -68 -11 -84 -12 -127 -1 -127 6 0 11 17 13
37 4 57 9 68 26 54 11 -9 16 -9 21 0 4 6 3 14 -3 18 -6 3 -13 23 -17 44 -4 20
-12 37 -18 37 -8 0 -8 3 0 11 7 7 8 21 2 42 -12 42 -11 80 1 72 21 -13 21 25
0 47 -14 15 -19 30 -15 45 6 25 -4 30 -23 11 -8 -8 -12 -8 -12 -1 0 6 14 16
30 23 17 7 30 20 30 30 0 21 25 44 39 36 15 -10 41 5 41 23 0 26 11 32 27 16
20 -21 26 -19 44 14 16 27 16 31 -2 57 -23 36 -24 67 -2 105 20 33 33 37 33
12 0 -15 2 -16 10 -3 6 9 6 16 0 18 -5 2 -1 20 8 39 13 27 14 37 5 40 -8 3 -1
15 18 32 26 24 28 29 13 35 -14 6 -13 9 10 31 17 15 24 30 19 40 -3 10 -1 20
5 24 16 10 16 241 0 241 -5 0 -8 7 -8 16 0 21 29 43 56 44 21 0 41 27 29 38
-3 3 -5 0 -5 -6 0 -27 -20 -9 -31 28 -9 28 -18 40 -31 40 -22 0 -23 13 -3 30
8 7 15 21 15 31 0 11 5 19 11 19 5 0 9 8 8 18 -4 41 2 63 23 84 12 12 23 37
25 55 1 18 7 43 14 55 9 16 9 23 0 26 -6 2 -11 12 -11 23 0 14 7 19 29 19 27
0 30 3 29 33 -1 17 -3 26 -5 20 -9 -26 -33 -13 -33 17 0 29 15 41 22 18 9 -25
28 5 28 43 0 36 -2 39 -19 30 -54 -30 -74 102 -25 166 14 18 33 33 42 33 10 0
13 3 6 8 -6 4 -13 15 -17 25 -8 23 -27 13 -27 -14 0 -16 -5 -18 -27 -13 -25 6
-26 5 -15 -8 10 -13 10 -18 1 -24 -7 -4 -9 -3 -5 4 3 6 2 13 -4 17 -5 3 -10
17 -10 31 0 25 -9 31 -26 14z"/>
<path d="M5120 6082 c0 -8 -66 -33 -95 -37 -36 -4 -63 -20 -80 -46 -11 -16
-36 -37 -55 -46 -19 -10 -38 -22 -42 -27 -4 -6 -22 -11 -40 -12 -20 -1 -39
-10 -50 -25 -15 -17 -31 -23 -73 -25 -30 -1 -58 -5 -64 -8 -5 -3 -17 -3 -26 0
-24 9 -34 -12 -30 -63 1 -24 -1 -46 -6 -49 -19 -11 -8 -33 21 -39 17 -4 28
-11 24 -16 -3 -5 1 -9 9 -9 8 0 22 -11 31 -25 13 -19 22 -24 41 -19 17 4 27 0
37 -15 7 -12 16 -21 20 -21 4 0 43 -17 86 -38 50 -25 89 -38 110 -36 18 1 39
-4 47 -12 20 -20 62 -34 81 -27 8 3 26 0 40 -7 19 -11 28 -11 48 -1 13 7 33
10 45 6 13 -4 21 -2 21 6 0 7 10 9 30 6 17 -4 30 -3 30 2 0 5 11 12 25 15 28
7 36 46 10 46 -19 0 -19 14 -1 32 7 8 17 24 20 36 4 12 12 20 17 16 5 -3 7
-11 3 -17 -3 -7 3 -1 15 13 11 14 25 26 30 26 6 1 12 2 14 4 1 1 15 4 30 6 15
3 37 14 47 24 11 11 29 20 41 20 17 0 20 -4 15 -24 -3 -14 -1 -28 4 -31 6 -4
8 -16 4 -28 l-6 -22 21 22 c11 12 21 27 21 33 0 16 22 12 35 -7 12 -17 14 -17
32 -1 18 17 20 17 36 1 16 -16 18 -16 31 2 10 14 11 24 4 32 -8 10 -6 13 5 13
8 0 20 7 27 15 7 8 25 15 41 15 33 0 68 17 87 43 7 9 22 17 32 17 10 0 22 5
26 11 4 8 31 9 85 4 80 -6 119 -1 119 16 0 5 -18 9 -40 9 l-40 0 0 40 c0 23
-5 40 -11 40 -7 0 -9 -10 -5 -25 5 -20 3 -25 -13 -25 -11 0 -23 5 -26 10 -3 6
-19 10 -36 10 -22 0 -29 5 -29 20 0 19 -5 20 -95 16 -68 -3 -95 -1 -95 7 0 7
-4 6 -9 -2 -8 -13 -12 -13 -26 -1 -9 7 -32 15 -52 17 -31 3 -35 1 -31 -15 4
-15 1 -18 -13 -15 -10 3 -16 9 -13 14 8 14 -40 21 -70 9 -31 -11 -33 -10 -105
58 -26 24 -43 27 -71 12 -13 -7 -19 -6 -24 5 -3 8 -14 15 -25 15 -11 0 -23 5
-27 11 -3 6 -17 8 -30 5 -18 -5 -22 -3 -18 9 4 10 0 15 -10 15 -9 0 -16 -8
-16 -19 0 -13 -7 -18 -22 -17 -13 1 -22 7 -20 14 1 7 -7 12 -18 12 -11 0 -20
7 -20 15 0 8 -4 15 -10 15 -5 0 -10 -4 -10 -8z"/>
<path d="M3560 5966 c0 -8 5 -18 11 -21 7 -5 4 -14 -8 -27 -17 -19 -17 -21 15
-49 35 -31 38 -45 21 -83 -15 -33 -49 -41 -67 -15 -11 16 -17 17 -28 8 -17
-14 -10 -27 21 -39 14 -5 29 -26 41 -55 17 -45 17 -49 0 -79 -9 -18 -14 -40
-10 -49 4 -11 -2 -24 -17 -36 -23 -18 -23 -20 -6 -38 22 -25 22 -40 -3 -53
-23 -13 -27 -35 -4 -26 19 7 8 -14 -18 -32 -22 -16 -23 -40 -2 -64 14 -14 15
-26 8 -60 -8 -36 -13 -42 -30 -40 -29 4 -51 -23 -34 -43 7 -8 18 -15 26 -15
21 0 23 -13 12 -61 -5 -24 -14 -78 -18 -119 -10 -88 -26 -186 -39 -250 -9 -40
-13 -85 -25 -280 -18 -278 -48 -474 -71 -453 -4 5 -5 -4 -1 -19 3 -16 1 -30
-5 -34 -15 -9 -4 -95 13 -105 8 -5 13 -41 15 -101 3 -136 9 -162 69 -285 41
-86 67 -124 110 -167 31 -30 66 -58 78 -62 11 -4 32 -14 46 -24 47 -32 114
-43 240 -38 92 3 124 8 136 20 11 10 18 45 23 109 9 120 6 853 -4 939 l-7 65
37 -35 c32 -31 70 -78 211 -264 60 -79 96 -98 54 -28 -11 18 -19 39 -18 45 2
7 -7 26 -18 42 -23 32 -37 85 -23 85 5 0 9 5 9 10 0 6 -10 10 -22 10 -18 0
-20 2 -8 10 12 8 12 10 -3 16 -11 4 -14 10 -9 18 21 26 20 56 -4 81 -12 14
-28 25 -34 25 -5 0 -10 4 -10 10 0 5 17 8 38 6 20 -2 31 -2 25 1 -7 2 -13 10
-13 16 1 17 36 57 50 57 10 0 9 4 0 15 -11 13 -10 18 6 30 10 9 29 14 41 12
15 -3 20 0 16 10 -4 11 4 12 38 7 24 -3 50 -7 57 -10 21 -6 13 22 -13 48 -21
21 -23 27 -11 37 8 6 19 10 26 9 18 -4 34 27 25 48 -4 11 -9 26 -10 35 -2 19
-35 56 -35 40 0 -6 -5 -11 -11 -11 -7 0 -9 10 -4 28 20 82 21 76 -16 69 -19
-3 -45 -9 -58 -13 -21 -6 -22 -4 -16 15 3 12 4 40 0 62 -6 37 -10 40 -31 36
-28 -5 -43 11 -23 24 10 6 8 9 -10 9 -22 0 -23 1 -7 24 22 34 0 48 -26 16 -15
-19 -18 -19 -18 -5 0 10 -10 28 -22 40 -13 13 -29 30 -36 39 -7 9 -17 14 -23
11 -9 -6 -13 7 -10 32 1 7 -8 17 -19 23 -12 6 -19 17 -16 25 3 9 -7 15 -30 19
-21 5 -34 13 -34 22 0 9 -13 28 -28 42 -16 15 -35 39 -43 54 -8 14 -25 47 -38
72 -14 25 -28 46 -33 46 -4 0 -8 7 -8 15 0 8 -4 15 -8 15 -4 0 -14 17 -21 38
-8 20 -17 39 -21 42 -6 4 -34 58 -141 272 -11 20 -19 41 -19 46 0 5 -11 21
-24 35 -13 14 -27 41 -31 59 -4 18 -14 42 -21 53 -8 11 -14 27 -14 37 0 10 -7
18 -15 18 -8 0 -15 -6 -15 -14z m144 -2336 c6 -35 22 -39 31 -9 12 36 22 7 27
-76 6 -94 3 -105 -26 -105 -47 0 -61 22 -64 105 -3 77 3 115 17 115 5 0 11
-13 15 -30z"/>
<path d="M6903 5572 c-26 -37 -62 -85 -80 -107 -35 -45 -93 -157 -113 -220
-21 -66 -72 -188 -97 -227 -13 -21 -23 -49 -23 -63 0 -22 -15 -60 -30 -75 -8
-8 -40 -67 -40 -74 0 -14 19 -5 23 12 5 19 10 -44 7 -100 -1 -23 3 -38 10 -38
7 0 9 -12 6 -35 -4 -20 -2 -35 4 -35 6 0 10 -7 10 -15 0 -8 -5 -15 -11 -15 -7
0 -9 -10 -4 -27 5 -24 10 -70 16 -163 1 -17 -41 -142 -50 -150 -15 -12 -51
-94 -51 -115 0 -12 -7 -28 -15 -35 -8 -7 -15 -21 -15 -31 0 -10 -4 -20 -9 -24
-5 -3 -12 -19 -16 -36 -4 -17 -13 -33 -21 -36 -8 -3 -14 -13 -13 -22 2 -18
-69 -174 -83 -179 -4 -2 -8 -10 -8 -18 0 -8 -8 -18 -17 -21 -35 -14 -101 -112
-86 -127 4 -3 2 -6 -4 -6 -6 0 -22 -26 -37 -57 -42 -91 -56 -113 -70 -113 -8
0 -16 -13 -19 -30 -4 -16 -18 -40 -33 -52 -14 -13 -34 -42 -45 -65 -11 -24
-24 -43 -29 -43 -6 0 -10 -6 -10 -14 0 -8 -16 -32 -36 -53 -41 -44 -107 -174
-98 -196 3 -8 1 -18 -5 -22 -6 -3 -11 -13 -11 -22 0 -8 -12 -29 -26 -46 -18
-22 -24 -37 -19 -54 5 -22 3 -24 -17 -18 -14 4 -18 3 -10 -2 9 -7 9 -20 -3
-60 -8 -28 -21 -56 -29 -62 -8 -7 -17 -23 -20 -37 -7 -27 -41 -66 -50 -56 -3
3 -6 -2 -6 -11 0 -23 -27 -21 -40 3 -6 11 -17 20 -25 20 -27 0 -53 41 -57 88
-1 6 -10 12 -21 12 -13 0 -17 5 -13 15 3 9 -1 18 -9 21 -8 4 -15 14 -15 24 0
23 -33 52 -52 45 -10 -4 -24 8 -40 33 -14 21 -41 46 -59 55 -19 9 -30 17 -25
17 11 0 -24 40 -34 40 -7 0 -18 -30 -18 -47 0 -3 -5 -9 -11 -12 -12 -8 23 -54
79 -104 19 -18 48 -47 65 -66 16 -19 48 -53 70 -75 22 -23 52 -59 66 -81 14
-22 43 -67 65 -100 22 -33 48 -77 58 -98 25 -54 64 -109 69 -100 3 5 13 37 22
73 9 36 21 70 26 76 5 6 18 35 28 65 10 30 24 70 31 89 7 19 40 91 73 160 33
69 65 139 72 155 28 69 55 121 72 141 23 25 39 53 76 129 16 33 33 62 37 65 4
3 22 30 40 60 34 57 89 133 102 138 5 2 8 8 8 14 0 6 26 40 59 77 53 60 59 71
63 121 3 30 19 91 36 135 17 44 51 143 76 220 79 246 182 506 214 538 19 19
20 18 27 -29 4 -26 8 -98 10 -158 2 -61 11 -133 19 -161 9 -27 16 -78 16 -113
0 -34 7 -79 15 -99 8 -20 13 -38 11 -41 -3 -2 2 -21 10 -40 15 -36 34 -125 59
-283 8 -48 19 -99 25 -114 5 -14 8 -30 5 -35 -11 -18 26 -33 68 -27 40 6 164
55 218 87 79 46 133 120 181 247 23 64 25 130 8 358 -5 77 -12 169 -14 205 -2
36 -7 73 -11 82 -3 9 -1 26 5 38 8 14 8 31 2 53 -5 18 -15 59 -22 92 -27 130
-71 290 -101 367 -11 26 -19 58 -19 73 0 14 -7 36 -15 48 -8 12 -34 78 -59
147 -45 126 -127 333 -152 381 -24 48 -40 43 -91 -29z"/>
<path d="M170 4899 c0 -14 7 -19 25 -19 14 0 25 -4 25 -10 0 -13 -10 -13 -60
5 -56 20 -58 19 -52 -10 3 -18 0 -25 -12 -25 -10 0 -13 5 -9 17 4 11 3 14 -5
9 -7 -4 -13 -22 -13 -39 -1 -30 -2 -30 -12 11 -10 44 -27 57 -27 21 0 -15 -5
-19 -15 -15 -14 5 -16 -9 -14 -107 1 -61 5 -120 10 -129 6 -10 5 -19 -1 -23
-12 -8 -12 -315 0 -315 4 0 19 11 33 25 14 15 27 21 30 15 3 -6 4 -5 3 2 -1 7
-12 14 -24 16 -22 3 -32 22 -12 22 6 0 10 5 10 10 0 6 -8 10 -17 10 -15 0 -14
2 3 14 12 10 34 13 64 10 l45 -5 -37 17 c-21 9 -38 21 -38 27 0 6 -6 18 -13
26 -8 11 -11 31 -6 61 l6 45 1 -44 c1 -24 4 -42 7 -40 7 8 14 112 8 123 -24
38 -4 101 28 91 27 -9 59 21 59 54 1 23 38 108 40 89 0 -12 40 30 40 42 0 6
-6 10 -14 10 -8 0 -16 5 -18 12 -7 20 -38 18 -38 -3z"/>
<path d="M109 4673 c-1 -5 -3 -21 -5 -38 -2 -16 -6 -40 -9 -52 -3 -15 -1 -23
7 -23 9 0 12 -13 10 -45 -4 -40 -2 -45 22 -51 25 -6 37 -24 16 -24 -13 0 -13
-27 0 -35 5 -3 19 0 30 8 17 12 18 16 5 40 -8 15 -11 27 -7 27 3 0 1 5 -6 12
-18 18 -15 38 8 58 13 11 17 21 10 25 -5 3 -10 1 -10 -4 0 -6 -9 -11 -19 -11
-20 0 -20 1 0 46 11 25 18 53 14 62 -5 14 -7 14 -15 2 -7 -12 -12 -12 -22 -2
-14 14 -27 16 -29 5z"/>
<path d="M6160 3070 c-19 -17 -42 -37 -50 -45 -77 -78 -100 -105 -100 -114 0
-7 -14 -26 -30 -44 -35 -36 -69 -90 -100 -157 -12 -25 -27 -52 -34 -60 -8 -8
-19 -33 -26 -54 -7 -22 -21 -53 -30 -70 -10 -17 -21 -47 -25 -66 -4 -19 -16
-49 -26 -66 -10 -17 -19 -40 -19 -50 0 -11 -7 -40 -17 -66 -17 -47 -17 -47 12
-100 15 -29 42 -76 60 -103 18 -28 53 -97 78 -155 82 -193 130 -286 134 -265
6 28 22 62 62 125 21 33 35 68 35 88 0 17 4 32 8 32 4 0 8 9 8 20 0 10 8 24
19 29 24 13 36 58 20 77 -8 9 -8 18 -2 27 15 18 23 57 12 57 -21 0 -6 22 23
34 27 12 29 15 12 19 -16 4 -16 5 -1 6 21 1 22 9 0 33 -14 16 -15 21 -4 27 11
7 11 9 0 13 -19 6 -49 -2 -49 -13 0 -5 5 -9 10 -9 13 0 13 -37 0 -45 -6 -4 -8
-11 -4 -16 3 -6 -1 -18 -11 -28 -9 -11 -17 -29 -19 -42 -4 -32 -39 -109 -50
-109 -7 0 -1 231 9 300 2 14 6 75 10 135 6 118 19 209 37 265 6 19 12 55 13
80 1 25 21 104 44 176 55 177 55 188 -9 134z"/>
<path d="M5628 1385 c-13 -29 -17 -30 -44 -11 -32 22 -48 6 -29 -30 18 -35 19
-56 4 -71 -6 -6 -8 -16 -5 -22 9 -14 43 -14 52 0 4 6 19 9 36 5 35 -7 47 14
28 50 -11 20 -11 27 3 42 21 23 21 32 0 48 -25 19 -32 17 -45 -11z"/>
<path d="M10408 723 c-10 -2 -18 -13 -18 -24 0 -12 -10 -23 -25 -29 -15 -6
-25 -17 -25 -29 0 -11 -4 -23 -10 -26 -5 -3 -10 -31 -10 -60 0 -46 5 -59 31
-90 17 -19 48 -42 68 -51 20 -9 46 -21 59 -27 28 -13 46 6 31 34 -13 25 -11
57 4 62 6 2 2 2 -10 0 -17 -2 -23 1 -23 16 0 10 -6 24 -14 31 -8 6 -12 18 -9
26 3 8 -1 14 -11 14 -9 0 -16 4 -16 9 0 5 -3 16 -6 25 -4 11 2 19 19 25 34 13
42 44 21 76 -16 25 -23 27 -56 18z"/>
<path d="M573 655 c-7 -8 -13 -24 -13 -37 0 -18 2 -20 10 -8 5 8 10 12 12 10
47 -72 60 -111 54 -152 -4 -23 -3 -37 3 -34 5 3 7 -3 4 -14 -4 -16 -2 -19 11
-14 9 3 17 9 18 13 13 54 12 172 -2 181 -6 3 -13 17 -15 30 -8 39 -57 54 -82
25z"/>
</g>
</svg>
